<svg width="32" height="32" viewBox="0 0 32 32" fill="none" xmlns="http://www.w3.org/2000/svg">
<path d="M8.36014 26.1867C9.76663 26.1867 10.9068 25.0465 10.9068 23.64C10.9068 22.2335 9.76663 21.0933 8.36014 21.0933C6.95366 21.0933 5.81348 22.2335 5.81348 23.64C5.81348 25.0465 6.95366 26.1867 8.36014 26.1867Z" stroke="#385E0F" stroke-width="1.5" stroke-miterlimit="10"/>
<path d="M23.6404 26.1867C25.0469 26.1867 26.1871 25.0465 26.1871 23.64C26.1871 22.2335 25.0469 21.0933 23.6404 21.0933C22.2339 21.0933 21.0938 22.2335 21.0938 23.64C21.0938 25.0465 22.2339 26.1867 23.6404 26.1867Z" stroke="#385E0F" stroke-width="1.5" stroke-miterlimit="10"/>
<path d="M5.81333 23.64H2V5.81333H24.9067V10.9067L27.4533 16L30 17.4267V23.64H26.1867" stroke="#385E0F" stroke-width="1.5" stroke-miterlimit="10"/>
<path d="M21.0929 23.64H10.9062" stroke="#385E0F" stroke-width="1.5" stroke-miterlimit="10"/>
<path d="M27.4535 16H19.8135V10.9067H24.9068" stroke="#385E0F" stroke-width="1.5" stroke-miterlimit="10"/>
</svg>
