<svg width="24" height="24" viewBox="0 0 24 24" fill="none" xmlns="http://www.w3.org/2000/svg">
<g clip-path="url(#clip0_110_7616)">
<path d="M7.2099 15.82L22.4799 12.96V4.35999H4.1499" stroke="#5D5E5C" stroke-width="1.5" stroke-miterlimit="10"/>
<path d="M0.52002 1.5H3.39002L7.20002 15.82L5.54002 18.31C5.38115 18.5538 5.29767 18.839 5.30002 19.13C5.30002 19.5172 5.45384 19.8886 5.72764 20.1624C6.00145 20.4362 6.3728 20.59 6.76002 20.59H18.66" stroke="#5D5E5C" stroke-width="1.5" stroke-miterlimit="10"/>
<path d="M18.66 22.5C19.1846 22.5 19.61 22.0747 19.61 21.55C19.61 21.0253 19.1846 20.6 18.66 20.6C18.1353 20.6 17.71 21.0253 17.71 21.55C17.71 22.0747 18.1353 22.5 18.66 22.5Z" stroke="#5D5E5C" stroke-width="1.5" stroke-miterlimit="10"/>
<path d="M9.10991 22.5C9.63458 22.5 10.0599 22.0747 10.0599 21.55C10.0599 21.0253 9.63458 20.6 9.10991 20.6C8.58524 20.6 8.15991 21.0253 8.15991 21.55C8.15991 22.0747 8.58524 22.5 9.10991 22.5Z" stroke="#5D5E5C" stroke-width="1.5" stroke-miterlimit="10"/>
</g>
<defs>
<clipPath id="clip0_110_7616">
<rect width="24" height="24" fill="white"/>
</clipPath>
</defs>
</svg>
