<!-- sprite.svg -->
<svg width='24' height='24' viewBox="0 0 24 24" xmlns="http://www.w3.org/2000/svg" fill="none" >
  <symbol id="icon-basket" viewBox="0 0 24 24">
    <path d="M7.2099 15.82L22.4799 12.96V4.35999H4.1499" stroke="currentColor" stroke-width="1.5" stroke-miterlimit="10"/>
    <path d="M0.52002 1.5H3.39002L7.20002 15.82L5.54002 18.31C5.38115 18.5538 5.29767 18.839 5.30002 19.13C5.30002 19.5172 5.45384 19.8886 5.72764 20.1624C6.00145 20.4362 6.3728 20.59 6.76002 20.59H18.66" stroke="currentColor" stroke-width="1.5" stroke-miterlimit="10"/>
    <path d="M18.66 22.5C19.1846 22.5 19.61 22.0747 19.61 21.55C19.61 21.0253 19.1846 20.6 18.66 20.6C18.1353 20.6 17.71 21.0253 17.71 21.55C17.71 22.0747 18.1353 22.5 18.66 22.5Z" stroke="currentColor" stroke-width="1.5" stroke-miterlimit="10"/>
    <path d="M9.10991 22.5C9.63458 22.5 10.0599 22.0747 10.0599 21.55C10.0599 21.0253 9.63458 20.6 9.10991 20.6C8.58524 20.6 8.15991 21.0253 8.15991 21.55C8.15991 22.0747 8.58524 22.5 9.10991 22.5Z" stroke="currentColor" stroke-width="1.5" stroke-miterlimit="10"/>
</symbol>




    <symbol id="icon-like" viewBox="0 0 24 24" >
        <path
            d="M16.77 3.91001C15.8228 3.91383 14.8913 4.1524 14.0589 4.60439C13.2265 5.05638 12.5191 5.70768 12 6.50001C11.3201 5.47839 10.3301 4.70205 9.17581 4.28529C8.02153 3.86853 6.76395 3.83337 5.58819 4.18497C4.41243 4.53658 3.38062 5.25639 2.64465 6.23842C1.90868 7.22045 1.50744 8.41283 1.5 9.64001C1.5 18.23 12 21.09 12 21.09C12 21.09 22.5 18.23 22.5 9.64001C22.5013 8.88717 22.354 8.14147 22.0665 7.44568C21.779 6.74989 21.357 6.11769 20.8247 5.58535C20.2923 5.05301 19.6601 4.63099 18.9643 4.3435C18.2685 4.05601 17.5228 3.9087 16.77 3.91001Z"
             stroke-width="1.5" stroke-miterlimit="10" />
        <path
            d="M16.77 7.73001C17.0212 7.72868 17.2701 7.77718 17.5025 7.8727C17.7348 7.96821 17.9459 8.10885 18.1235 8.28648C18.3011 8.4641 18.4418 8.67519 18.5373 8.90752C18.6328 9.13985 18.6813 9.38881 18.68 9.64001C18.6658 10.471 18.4861 11.2908 18.1512 12.0514C17.8164 12.8121 17.3332 13.4983 16.73 14.07"
             stroke-width="1.5" stroke-miterlimit="10" />
    </symbol>


    <symbol id="icon-like-fill" viewBox="0 0 24 24" >
     
<path d="M16.77 3.41C15.8228 3.41381 14.8913 3.65239 14.0589 4.10437C13.2265 4.55636 12.5191 5.20766 12 6C11.3201 4.97837 10.3301 4.20204 9.17581 3.78528C8.02153 3.36852 6.76395 3.33335 5.58819 3.68496C4.41243 4.03657 3.38062 4.75637 2.64465 5.7384C1.90868 6.72044 1.50744 7.91281 1.5 9.14C1.5 17.73 12 20.59 12 20.59C12 20.59 22.5 17.73 22.5 9.14C22.5013 8.38715 22.354 7.64145 22.0665 6.94566C21.779 6.24987 21.357 5.61768 20.8247 5.08534C20.2923 4.553 19.6601 4.13098 18.9643 3.84348C18.2685 3.55599 17.5228 3.40868 16.77 3.41Z" fill="#385E0F"  stroke-width="1.5" stroke-miterlimit="10"/>
<path d="M16.77 7.23C17.0212 7.22867 17.2701 7.27717 17.5025 7.37269C17.7348 7.46821 17.9459 7.60885 18.1235 7.78647C18.3011 7.96409 18.4418 8.17518 18.5373 8.40751C18.6328 8.63984 18.6813 8.8888 18.68 9.14C18.6658 9.97097 18.4861 10.7908 18.1512 11.5514C17.8164 12.3121 17.3332 12.9983 16.73 13.57"  stroke-width="1.5" stroke-miterlimit="10"/>

    </symbol>

     <symbol id="info" viewBox="0 0 24 24" >
        <path d="M12 23C17.799 23 22.5 18.299 22.5 12.5C22.5 6.70101 17.799 2 12 2C6.20101 2 1.5 6.70101 1.5 12.5C1.5 18.299 6.20101 23 12 23Z" stroke="#5D5E5C" stroke-width="1.5" stroke-miterlimit="10"/>
            <path d="M11.9998 17.27V10.59H10.0898" stroke="#5D5E5C" stroke-width="1.5" stroke-miterlimit="10"/>
            <path d="M10.0898 17.27H13.9098" stroke="#5D5E5C" stroke-width="1.5" stroke-miterlimit="10"/>
            <path d="M11.0498 7.73H12.9498" stroke="#5D5E5C" stroke-width="1.5" stroke-miterlimit="10"/>
    </symbol>

    <symbol id="person" viewBox="0 0 24 24" >
      
            <path d="M11.9995 13.48C15.1641 13.48 17.7295 10.9146 17.7295 7.74999C17.7295 4.5854 15.1641 2.01999 11.9995 2.01999C8.83494 2.01999 6.26953 4.5854 6.26953 7.74999C6.26953 10.9146 8.83494 13.48 11.9995 13.48Z" stroke="#5D5E5C" stroke-width="1.5" stroke-miterlimit="10"/>
            <path d="M1.5 23.98L1.87 21.93C2.3071 19.5625 3.55974 17.4229 5.41031 15.8828C7.26088 14.3428 9.59246 13.4997 12 13.5C14.4104 13.5006 16.7443 14.3465 18.5952 15.8905C20.4462 17.4345 21.6971 19.5788 22.13 21.95L22.5 24" stroke="#5D5E5C" stroke-width="1.5" stroke-miterlimit="10"/>


    </symbol>

    <symbol id="truck" viewBox='0 0 32 32'>
            <path d="M8.36014 26.1867C9.76663 26.1867 10.9068 25.0465 10.9068 23.64C10.9068 22.2335 9.76663 21.0933 8.36014 21.0933C6.95366 21.0933 5.81348 22.2335 5.81348 23.64C5.81348 25.0465 6.95366 26.1867 8.36014 26.1867Z" stroke="#385E0F" stroke-width="1.5" stroke-miterlimit="10"/>
        <path d="M23.6404 26.1867C25.0469 26.1867 26.1871 25.0465 26.1871 23.64C26.1871 22.2335 25.0469 21.0933 23.6404 21.0933C22.2339 21.0933 21.0938 22.2335 21.0938 23.64C21.0938 25.0465 22.2339 26.1867 23.6404 26.1867Z" stroke="#385E0F" stroke-width="1.5" stroke-miterlimit="10"/>
        <path d="M5.81333 23.64H2V5.81333H24.9067V10.9067L27.4533 16L30 17.4267V23.64H26.1867" stroke="#385E0F" stroke-width="1.5" stroke-miterlimit="10"/>
        <path d="M21.0929 23.64H10.9062" stroke="#385E0F" stroke-width="1.5" stroke-miterlimit="10"/>
        <path d="M27.4535 16H19.8135V10.9067H24.9068" stroke="#385E0F" stroke-width="1.5" stroke-miterlimit="10"/>

    </symbol>


</svg>



