<svg width="24" height="24" viewBox="0 0 24 24" fill="none" xmlns="http://www.w3.org/2000/svg">
<path d="M16.77 3.41C15.8228 3.41381 14.8913 3.65239 14.0589 4.10437C13.2265 4.55636 12.5191 5.20766 12 6C11.3201 4.97837 10.3301 4.20204 9.17581 3.78528C8.02153 3.36852 6.76395 3.33335 5.58819 3.68496C4.41243 4.03657 3.38062 4.75637 2.64465 5.7384C1.90868 6.72044 1.50744 7.91281 1.5 9.14C1.5 17.73 12 20.59 12 20.59C12 20.59 22.5 17.73 22.5 9.14C22.5013 8.38715 22.354 7.64145 22.0665 6.94566C21.779 6.24987 21.357 5.61768 20.8247 5.08534C20.2923 4.553 19.6601 4.13098 18.9643 3.84348C18.2685 3.55599 17.5228 3.40868 16.77 3.41Z" fill="#385E0F" stroke="#385E0F" stroke-width="1.5" stroke-miterlimit="10"/>
<path d="M16.77 7.23C17.0212 7.22867 17.2701 7.27717 17.5025 7.37269C17.7348 7.46821 17.9459 7.60885 18.1235 7.78647C18.3011 7.96409 18.4418 8.17518 18.5373 8.40751C18.6328 8.63984 18.6813 8.8888 18.68 9.14C18.6658 9.97097 18.4861 10.7908 18.1512 11.5514C17.8164 12.3121 17.3332 12.9983 16.73 13.57" stroke="white" stroke-width="1.5" stroke-miterlimit="10"/>
</svg>
