<svg width="24" height="24" viewBox="0 0 24 24" fill="none" xmlns="http://www.w3.org/2000/svg">
<path d="M16.77 3.41001C15.8228 3.41383 14.8913 3.6524 14.0589 4.10439C13.2265 4.55638 12.5191 5.20768 12 6.00001C11.3201 4.97839 10.3301 4.20205 9.17581 3.78529C8.02153 3.36853 6.76395 3.33337 5.58819 3.68497C4.41243 4.03658 3.38062 4.75639 2.64465 5.73842C1.90868 6.72045 1.50744 7.91283 1.5 9.14001C1.5 17.73 12 20.59 12 20.59C12 20.59 22.5 17.73 22.5 9.14001C22.5013 8.38717 22.354 7.64147 22.0665 6.94568C21.779 6.24989 21.357 5.61769 20.8247 5.08535C20.2923 4.55301 19.6601 4.13099 18.9643 3.8435C18.2685 3.55601 17.5228 3.4087 16.77 3.41001Z" stroke="#5D5E5C" stroke-width="1.5" stroke-miterlimit="10"/>
<path d="M16.77 7.23001C17.0212 7.22868 17.2701 7.27718 17.5025 7.3727C17.7348 7.46821 17.9459 7.60885 18.1235 7.78648C18.3011 7.9641 18.4418 8.17519 18.5373 8.40752C18.6328 8.63985 18.6813 8.88881 18.68 9.14001C18.6658 9.97098 18.4861 10.7908 18.1512 11.5514C17.8164 12.3121 17.3332 12.9983 16.73 13.57" stroke="#5D5E5C" stroke-width="1.5" stroke-miterlimit="10"/>
</svg>
