<?xml version="1.0" encoding="UTF-8"?>
<svg id="_Шар_1" data-name="Шар 1" xmlns="http://www.w3.org/2000/svg" viewBox="0 0 755.45 243.53">
  <defs>
    <style>
      .cls-1 {
        fill: #92a7a6;
      }

      .cls-2 {
        fill: #91a6a5;
      }

      .cls-3 {
        fill: #9a9898;
      }

      .cls-4 {
        fill: #91a7a6;
      }

      .cls-5 {
        fill: #1d2423;
      }

      .cls-6 {
        fill: #b6abaa;
      }

      .cls-7 {
        fill: #a0a6a5;
      }

      .cls-8 {
        fill: #151515;
      }

      .cls-9 {
        fill: #a6b1b0;
      }

      .cls-10 {
        fill: #9bafae;
      }

      .cls-11 {
        fill: #b4b8b8;
      }

      .cls-12 {
        fill: #433b3b;
      }

      .cls-13 {
        fill: #b5a4a3;
      }

      .cls-14 {
        fill: #b6a5a4;
      }

      .cls-15 {
        fill: #c5bebd;
      }

      .cls-16 {
        fill: #b4a3a3;
      }

      .cls-17 {
        fill: #a79898;
      }

      .cls-18 {
        fill: #d5e1e0;
      }

      .cls-19 {
        fill: #90a4a4;
      }

      .cls-20 {
        fill: #171717;
      }

      .cls-21 {
        fill: #bab4b3;
      }

      .cls-22 {
        fill: #b6a9a8;
      }

      .cls-23 {
        fill: #8da09f;
      }

      .cls-24 {
        fill: #9aafaf;
      }

      .cls-25 {
        fill: #95aaa9;
      }

      .cls-26 {
        fill: #313232;
      }

      .cls-27 {
        fill: #b3afae;
      }

      .cls-28 {
        fill: #abbebe;
      }

      .cls-29 {
        fill: #6d7171;
      }

      .cls-30 {
        fill: #97a1a1;
      }

      .cls-31 {
        fill: #836f6e;
      }

      .cls-32 {
        fill: #ae9b9b;
      }

      .cls-33 {
        fill: #f1f2f2;
      }

      .cls-34 {
        fill: #b6c0bf;
      }

      .cls-35 {
        fill: #141414;
      }

      .cls-36 {
        fill: #a99d9d;
      }

      .cls-37 {
        fill: #acc0bf;
      }

      .cls-38 {
        fill: #c9bab9;
      }

      .cls-39 {
        fill: #a1b4b4;
      }

      .cls-40 {
        fill: #c5b6b6;
      }

      .cls-41 {
        fill: #b2a1a1;
      }

      .cls-42 {
        fill: #fff;
      }

      .cls-43 {
        fill: #99a7a7;
      }

      .cls-44 {
        fill: #c4d5d4;
      }

      .cls-45 {
        fill: #4e4544;
      }

      .cls-46 {
        fill: #ac9999;
      }

      .cls-47 {
        fill: #a6b3b2;
      }

      .cls-48 {
        fill: #fefefe;
      }

      .cls-49 {
        fill: #322b2a;
      }

      .cls-50 {
        fill: #aabdbc;
      }

      .cls-51 {
        fill: #536362;
      }

      .cls-52 {
        fill: #b9a7a7;
      }

      .cls-53 {
        fill: #9aaeae;
      }

      .cls-54 {
        fill: #93a1a0;
      }

      .cls-55 {
        fill: #b1aead;
      }

      .cls-56 {
        fill: #fcfcfc;
      }

      .cls-57 {
        fill: #b29f9f;
      }

      .cls-58 {
        fill: #a28f8e;
      }

      .cls-59 {
        fill: #afb7b6;
      }

      .cls-60 {
        fill: #9aa5a4;
      }

      .cls-61 {
        fill: #a2b5b5;
      }

      .cls-62 {
        fill: #c0c1c1;
      }

      .cls-63 {
        fill: #cac8c7;
      }

      .cls-64 {
        fill: #fdfefe;
      }

      .cls-65 {
        fill: #bac6c5;
      }
    </style>
  </defs>
  <path class="cls-40" d="M31.82,160.18c-2.23-.57-4.1-1.8-5.84-3.14,2.16.65,4.19,1.68,5.84,3.14Z"/>
  <path class="cls-30" d="M17.01,72.69c.79-4.37,1.39-4.25,3.59-7.63-1.12,2.65-2.77,4.84-3.59,7.63Z"/>
  <path class="cls-43" d="M755.45,118.01l-2.24-3.59c1.22,1.34,1.98,1.42,2.24,3.59Z"/>
  <path class="cls-2" d="M751.86,113.07c-.66,0-1.15-.25-1.35-.9.75.42.72.42,1.35.9Z"/>
  <path class="cls-47" d="M22.85,61.93c.3-.45.6-.9.9-1.35,0,.67-.27,1.12-.9,1.35Z"/>
  <g>
    <path class="cls-35" d="M385.11,86.11c.02.12.54,1.18.67,1.12l17.77-17.68c6.44-1.32,8.83-6,14.16-8.72,2.38-1.21,8.47-3.94,10.91-4.35,4.44-.75,10.08.53,14.14-.22,1.27-.24,3.45-2.3,5.2-2.88,1.25-.42,6-.85,6.21-1.2.11-.18.22-2.91.61-4.1.81-2.45,2.45-2.96,3.38-4.69,1.35-2.53,1.44-6.28,3.14-8.98.79-1.24,5.14-7,6.1-8.04,5.98-6.49,11.39-4.98,18.94-5.52,5.04-.36,4.76-1.93,8.19-3.03s6.9,0,10.27-.95c1.73-.49,3.39-2.01,5.29-2.78,15.14-6.17,27.47-3.06,43.09-2.65,2.39.06,7.37.37,9.44-.03,1.05-.2,2.56-2.17,3.86-2.88,4.76-2.59,8.89-.09,13.67-.69,2.02-.25,4.1-1.93,6.31-2.22,2.52-.33,5.45.31,7.94-.14,3.08-.56,6.42-4.78,9.98-4.83l26.06.92c7.66-2.59,17.26-1.64,24.99.55,4.44,1.26,5.59,4.18,8.77,5.59,2.78,1.24,5.42.71,8.15,2.62,9.17,6.43,13.52,22.1,8.89,32.13-.51,1.11-3.85,5.74-3.46,6.18,1.68-.75,3.56-.18,5.14-.47,1.02-.18,2.57-1.55,3.85-1.99,2.69-.92,8.04-1,10.87-.57,2.48.38,4.28,2.33,6.39,2.59,7.67.93,20.41-1.72,27.17,1.11,1.65.69,3.81,2.75,5.37,3.16,1.65.44,3.28.14,5.15.69,4.45,1.31,12.7,7.46,13.29,12.29.58,4.79-.26,10.88-.48,15.7-.23,4.84,1.08,11.4-3.11,14.83-1.1.9-2.35,1.19-3.38,2.01-1.61,1.29-2.97,3.07-4.65,4.32.4,1.62,1.53,2.97,2.08,4.53,1.98,5.56-.11,12.74.09,18.65,2.52,2.39,8.86,6.46,9.4,9.99-.49,7.95.75,16.83.05,24.66-.45,5.05-6.82,9.69-11.34,11.1-2.01.63-4.73.56-6.31,1.32-3.21,1.54-7.3,6.6-10.78,8.52-3.27,1.8-6.97,1.65-10.17,2.85-1.7.64-4.37,3.86-6.73,4.93s-5.09.98-7.16,2.26c-2.32,1.44-4.69,5.24-7,6.91-1.13.82-3.22,1.29-3.84,1.99s-1.83,3.59-2.75,4.88c-1.24,1.74-3.43,4.96-5.08,6.14-7.76,5.55-24.48,7.25-32.31,1.34-1.8-1.36-4.67-4.87-6.28-5.84-1.16-.7-2.78-.81-4.25-1.59-3.11-1.64-6.67-5.27-8.19-8.42-.5-1.04-2.45-6.98-2.86-7.05-1.36-.23-3.17,2.54-4.24,3.39-2.23,1.76-9.66,5.75-12.35,6.05-9.6,1.09-17.05-1.12-23.32-8.55-3.86-2.23-10.14,5.68-13.97,6.27-5.89.92-15.37-.2-21.5-.44-6.67-.26-11.82,1.35-17.31-3.34-2.8-2.4-12.44-12.04-14-14.72-1.16-1.99-1.25-4.34-2.11-6.41-.5-1.21-1.06-.72-1.84.03-.87.83-4.37,4.56-4.93,5.39-.94,1.39-1.2,3.19-2.51,4.67-1.55,1.76-4.28,2.78-6.02,4.3-3.84,3.35-5.72,8.27-11.99,9.55-2.08.43-10.03-.34-10.83.16-1.73,5.08-.19,11.81-2.38,16.69-.92,2.04-5.81,8.55-7.55,9.95-4.35,3.49-8.96,6.99-13.25,10.53-1.67,1.38-3.25,3.73-5.01,4.86-4.76,3.06-18.48,4.57-24.16,4.11-1.84-.15-3.38-1.1-5.39-.92s-5.02,1.94-7.22,2.23c-8.3,1.1-19.18-2.45-27.68-2.77-2.28-.67-11.56-8.57-13.6-10.64-3.34-3.39-3.87-3.84-7.61-6.75-4.43-3.45-3.72-3.95-9.38-6.77-2.53-1.26-7.51-6.76-9.18-9.21-1.16-1.7-1.59-4.29-2.57-5.51-.43-.54-3.91-2.95-4.57-3.09-2.1-.43-4.71,1.41-6.66,1.69-2.53.37-6.7-.52-8.86.12-1.38.41-3.88,4.23-5.03,5.29-1.47,1.35-8.51,4.89-10.42,5.29-2.98.61-17.94-.78-20.77-1.92-5.33-2.14-14.37-12.44-16.35-17.76-.89-2.41-.97-5.89-1.17-8.48-2.54.87-5.89.81-8.26,1.84-2.16.94-3.87,3.75-6.17,5.05-2.81,1.59-5.6,1.6-8.63,3.94-1.07.83-1.45,2.28-2.56,3.27-1.46,1.3-4.82,1.96-5.56,2.97-.6.82-.58,2.41-1.05,3.43-6.05,12.96-26.44,15.6-38.22,9.75-2.87-1.42-4.03-5.23-6.07-6.49-1.51-.94-4.21-1.18-6.21-2.32-5.92-3.34-7.73-8.97-10.42-14.71l-5.46,4.85-10.23,4.58-60.13-.05c-3.19-.19-5.78-3.28-8.42-4.15-4.04-1.32-9.28-1.6-13.4-2.75-1.64-.46-6.03-2.91-6.53-2.95-.88-.07-4.03,1.84-5.38,2.24-2.31.67-5.05.49-7.05,1.03-1.62.44-4.06,3.08-6.42,3.45-4.15.65-26.42.67-30.39-.08-1.66-.31-4.95-2.03-6.31-3.11-1.22-.98-2.24-2.77-3.02-3.27-1.15-.74-3.17-.85-4.88-1.85-1.61-.94-6.2-5.62-7.02-7.34-1.49-3.1-1.42-6.64-2.3-9.81-.54-1.95-2.29-3.26-3.01-5.07-1.49-3.74-.98-23.26-.07-27.78.36-1.79,2.43-6.15,2.48-6.97.09-1.39-2.08-4.38-2.55-5.95-1.31-4.38-1.13-27.61-.61-33.07.1-1.04.21-1.59.59-2.56,1.68-4.37,10.71-17.35,13.88-21.57,2.58-3.43,5.01-6.24,9.03-8.02,1.97-.88,5.17-1.34,6.92-2.46.92-.59,1.42-1.89,2.67-2.76,2.18-1.51,10.67-6.02,12.99-6.31,5.72-.7,13.09.99,19.03.62,5.93,2.03,9.42,7.66,14.52,10.97,3.82-5.4,8.71-5.08,14.18-6.94,3.14-1.07,4.41-3.58,7.98-4.13,2.4-.37,4.84.12,7.32-.31,2.78-.48,4.29-2.33,6.72-3.15,2.63-.89,8.61-1.04,11.39-.65,1.19.17,2.63,1.18,3.26,1.22.39.02,2.65-1.11,3.97-1.25,3.27-.34,6.65.98,9.77.34,3.99-.82,5.91-7.47,10.11-9.19,5.91-2.42,23.95-4.45,29.44-1.87,2.23,1.05,3.84,3.23,6.54,3.78,1.94.4,3.75,0,5.6.24,4.97.66,9.23,6.82,13.48,8.96,2.47,1.24,6.24,1.66,8.64,3.03,1.03.59,2.55,2.58,3.11,2.69,1.16.23,12.85-5.25,15.45-5.95,3.06-.82,8.19-1.11,11.32-.59,2.2.37,4.65,2.33,6.83,2.6,7.25.9,16.32-.67,23.77-.04,2.53-.4,3.27-4.22,4.58-6.19,7.91-11.94,25.82-11.48,35.77-2.23l3.21,3.06c2.47-2.69,3.09-6.53,5.6-9.21,1.85-1.97,4.8-3.61,6.77-5.35,5.72-5.06,11.6-11.57,19.71-13.05,11.96-2.18,21.65,5.23,27.15,15.08,3.37,6.03,1.39,8.3,2.59,13.56.28,1.23,1.88,2.46,2.48,3.8,1.65,3.64,2.18,16.56,1.44,20.5-.21,1.16-1.67,2.54-2.01,3.83-.17.68-1.12,5.32-1.12,5.61,0,2.5-.34,6.23,0,8.52Z"/>
    <path class="cls-42" d="M510.8,25.32c13.6-9.94,39.42-3.11,55.43-4.5,4.03-3.44,6.66-4.8,12.15-4.49,1.48.08,3.09.8,4.41.75,1.82-.07,4.72-1.54,6.93-1.95,2.83-.52,6.44-.15,8.75-.68,1.48-.34,4.18-2.71,5.99-3.44,7.28-2.92,21.01.33,29.14-.48,1.82-.18,3.19-1.11,4.96-1.32,4.15-.5,14.19,1.48,17.83,3.62,3.86,2.27,3.6,2.38,8.04,4.08,5.19,1.98,7.56,5.31,9.33,10.41,2.6,7.49,1.37,11.86-4.5,16.83-.46.61-1.07,1.09-1.8,1.35-1.14.81-1.78,1.53-3.14,2.24l-2.24,1.35c-3.07,1.17-7.69,1.33-10.01,2.34-.44.19-.89.43-.77,1.02,2.97,3.35,7.58,3.05,11.19,5.42,2.47,1.62,3.96,4.14,5.66,6.48,1.82-1.13,3.1-2.49,5.16-3.36,4.14-1.74,7.49-2.21,11.69-3.12,2.42-.52,4.58-2.47,7.49-2.83,3.55-.43,4.77.74,7.74,1.68,2.1,1.06,4.5,1.33,7.22.81l4.45.54c6.15,1.51,11.66-1.22,17.61.57,2.09.63,3.2,2.08,4.83,2.8,1.47.64,2.79.46,4.06.88,4.03,1.32,7.23,2.98,9.21,6.95-.35,3.77,1.25,15.59-.03,18.41-.42.93-5.68,5.61-6.8,6.21-3.06,1.61-6.09.88-8.35,1.98-1.37.67-2.66,2.74-3.91,3.71,2.96,3.52,7.79,6.42,9.3,10.89,1.79,5.32,1.24,10.96-2.34,15.36-.79.97-5.66,4.67-5.17,5.37.08.12,2.36,1.22,2.56,1.26,4,.89,5.66-.11,10.01,2.33l1.35.9c.53.4.91.87,1.35,1.35,1.01,1.05,1.75,2.24,2.24,3.59.66,5.44-.48,12.12,0,17.71-2.42,5.58-10.1,4.72-14.06,7.03-3.03,1.76-5.82,5.77-9.42,7.64-4.39,2.28-9.56,2.32-13.22,3.81-.46.19-3.4,3.79-5.18,4.73-2.28,1.2-5.52.96-6.78,1.75-2.28,1.44-5.69,5.53-7.94,7.32-1.84,1.46-6.05,2.5-6.71,3.17-.52.53-.58,2.81-.98,3.95-2.31,6.54-7.89,9.2-14.49,9.74-6.39.52-9.83-.23-14.58-4.48-2-2.31-4.24-3.95-6.73-4.94-4.37-2.91-6.71-3.95-7.97-9.76-.38-1.75-.25-5.62-.79-6.83-.41-.93-3.15-2.87-4.01-4.07-1.4-1.98-2.11-5.79-4.31-6.95-.81-.43-.66.1-.88.25l-.9,1.35c-.45.55-2.21,2.48-2.37,2.81-2.48,4.95-1.02,7.2-6.16,11.55-2.64,1.76-5.46,3.18-8.53,4.04-3.59.51-5.67.17-8.98-1.35l-3.14-2.24c-.92-1-1.57-1.96-2.24-3.14l-2.08-5.97c-.62-.17-1.08.12-1.51.58-4.89,3.71-10.02,4.08-14.81,7.18-1.27.89-2.61,1.64-4.04,2.24-4.78,1.48-19.08,1.38-24.48.91-3.24-.28-6.7-1.7-8.98-4.04-1.1-1.13-2.02-3.42-2.92-4.26-.97-.91-3.08-1.68-4.26-2.92-5.04-5.3-2.92-10.42-3.83-16.36-.17-1.13-1.29-3.46-1.77-4.74-.63-.96-1.14-2.01-1.35-3.14-1.68-4.35-1.24-7.75-2.69-11.66l-.48-1.18c-1.34-1.12-2.73,8.79-2.66,9.7-.99,4.49-.67,7.69-4.03,11.45-1.95,2.18-4.23,5.04-6.05,6.96-1.1,1.16-2.85,1.76-3.83,3.12-.37,1.44-.97,2.78-1.8,4.04-1.06,1.39-1.96,2.02-3.14,3.14-2.36,1.29-4.25,3.24-5.84,5.38-5.3,4.73-13.41,4.52-19.88,2.14-1.55-.57-3.06-2.31-4.36-1.69-1.84,1.51-1.48,3.64,1.08,6.41,2.38,5.58.41,18.02-3.77,22.75-2.37,2.49-3.92,2.51-5.86,4.24-4.28,3.82-8.72,10.15-14.04,12.89-2.68,1.38-12.23,3.06-15.34,3.06-2.52,0-5.75-1.2-8.37-1.09-3.7.16-8.04,2.36-11.82,2.46s-15.28-1.08-18.88-2.25c-4.21-1.37-4.4-3.37-7.09-5.7-1.54-1.34-3.13-1.66-4.79-3.51-1.21-1.34-2.19-3.89-3.35-4.73-1.49-1.09-3.51-1.62-5.38-3.14-1.49-1.2-2.8-3.17-4.31-4.22-4.93-3.46-7.83-3.18-11.84-9.25-4.42-6.71-2.9-6.35-10.27-10.82-.89-.54-2.89-2.41-3.33-2.53-1.93-.57-9.89,2.72-12.52,3.02-2.45.28-6.74-.86-7.87-.62-2.6.57-6.85,7.96-10.41,9.72-4.19,2.07-13.25,1.44-17.72.05-5.46-1.7-13.56-12.24-13.56-17.86v-15.93c-3.17,1.38-5.1,4.22-8.36,5.78-4.11,1.96-8.04,2.16-11.97,3.29-.86.25-3.79,3.81-5.56,4.77-2.39,1.3-4.45.99-6.32,1.76-2.15.89-6.96,6.05-9.09,7.74-.6.68-1.41,1.02-2.24,1.35-.87.39-3.83,1.27-3.95,1.44-.25.34-.84,3.86-1.22,4.83-1.01,2.59-2.53,4.19-4.7,5.84l-2.24,1.35c-5.14,2.16-13.64,2.95-18.55-.07-2.4-1.48-4.78-5.76-6.16-6.41-.96-.45-2.35-.41-3.56-.92-4.85-2.04-8.35-6.8-8.56-12.1-.05-1.23.57-3.56.27-4.26-.27-.61-3.35-2.7-4.27-3.84-1.02-1.26-1.18-2.05-1.81-3.35l-.9-2.24c-.46-.62-1.37-1.41-2.03-1.79s-.14-.61-.9-.02c-.23.18-3.24,4.22-3.45,4.63-3.39,6.55-1.02,8.26-8.89,12.88-1.85.95-3.79,1.78-5.84,2.24-4.12.59-5.64-.82-8.77-.92-3.98-.12-9.14.51-13.47.49-4.75-.02-4.84.91-8.51,1.33-4.87.55-21.2.08-25.61-1.32-2.15-.68-4.06-2.12-6.49-2.94-5.22-1.77-11.73-2.27-16.55-4.55-2.05-.97-4.14-2.61-6.2-3.66-2.63.54-4.56,2.74-6.88,3.72-2.89,1.22-5.96.97-8.54,1.78-1.01.32-2.19,1.61-3.26,2.12-5.36,2.56-21.41,2.48-27.36,1.16-3.58-.79-4.71-2.75-7.06-4.83l-5.84-3.14c-2.61-2.02-4.5-4.21-5.27-7.52-.36-1.52-.05-4.05-.31-5.06-.23-.88-1.63-2.25-2.13-3.27-2.44-4.97-.94-7.47-.36-12.18.64-5.25-1.9-8.78,1.09-14.62.58-1.13,3.31-3.95,3.31-4.6-.02-1.64-4.39-9.36-5.2-11.85-1.93-5.93-1.25-18.93-.1-25.25.76-2.73,1.95-5.27,3.59-7.63.7-1.08,1.54-2.08,2.24-3.14.45-.34.75-.8.9-1.35,3.5-5.21,7.46-13.06,13.16-15.79,1.8-.86,4.33-1.25,6.01-2.07,4.64-2.27,7.78-7.22,13.5-8.05,6.82-.98,13.63-.69,19.17,3.48,4.44,3.34,5.78,5.51,11.01,8.51l1.35.9c2.44,2.61,3.79,3.21,4.04,1.79.63-1.7,1.26-3.4,2.24-4.94,4.72-6.08,7.1-4.04,12.83-6.25,2.17-.83,3.39-2.72,6.54-3.33,2.51-.49,5.11.1,7.25-.38s4.91-2.93,7.83-3.39c4.12-.65,7.92,1.65,11.58,1.46,1.6-.08,3.53-1.4,5.37-1.57,2.71-.26,5.46,1.27,7.53.82.39-.09,7.04-2.96,7.37-3.2.99-.74,2.61-3.98,3.96-5.24,1.54-1.44,5.13-3.27,7.22-3.55,5.68-.78,15.23-1.75,20.09,1.38,1.03.67,1.84,2.06,2.97,2.42,1.52.48,3.15.02,4.69.25,4.74.7,7.17,2.87,10.6,5.78,1.89,1.55,3.94,2.85,6.28,3.59,1.2.22,2.25.67,3.14,1.35,3.82,1.88,5.33,3.3,7.42,7.18,1.73-.92,3.11-2.33,4.92-3.16,4.4-2,10.26-3.62,14.93-5.27,7.31-2.59,8.93,1.07,14.76,1.67,2.11.22,4.2-.7,6.65-.38,1.71.22,3.94,1.66,5.46,1.73,2.18.09,5.71-.78,8.03-.89,1.98-.09,5.83.58,7.11.39.91-.14,1.75-1.22,2.56-1.71.54-.15,1.02-.43,1.35-.9,4.11-2.83,3.22-3.11,5.92-6.87,1.03-1.43,1.75-2.26,3.06-3.45,4.63-3.64,10.7-3.99,15.71-.9.37.45.82.74,1.35.9,4.39,3.28,9.36,7.4,9.89,13.22.34,3.68-1.3,13.06-.23,15.49,1.32,2.98,6.65-.45,9.19.46-.13-2.3.12-4.59.57-6.83,1.17-5.92.65-5.56.33-11.34-.37-6.68,1.43-13.46,6.72-17.95,1.34-1.13,3.51-1.83,4.36-2.6.51-.46.86-1.67,1.49-2.32,3.06-3.17,6.33-5.47,10.31-7.41,4.29-1.92,9.23-2.1,13.02.9.61-.03,1.21.27,1.8.9,2.99,2.83,7.42,9.48,7.65,13.67.09,1.7-.62,3.84-.48,4.93.1.74,2.58,3.67,3.17,5.39,3.88,11.2-1.12,15.61-2.27,25.13-1.26,10.38,3.87,18.16-1.78,28.5,2.03,5.95,1.73,11.34-.9,16.15-1.29,1.5-2.39,3.07-3.29,4.71-.29,1.32.2,9.7.54,11.06s8.12.65,9.08.14c.18-4.47,2.35-7.36,5.03-10.69.16-2.33.26-4.67.3-7.02.98-4.66,4.64-8.26,5.62-12.1,1.12-4.36-.67-8.49,1.91-13.34,1.44-2.7,12.63-13.92,15.39-16.02s4.64-1.83,6.8-2.96c.42-.22,2.58-2.95,3.88-3.87,2.18-1.53,5.18-2.85,7.69-3.76,2.32-1.41,4.99-1.86,7.63-2.24,3-.16,7.8.76,10.07.44,1.45-.21,3.13-1.94,4.58-2.62,4.18-1.97,8.67-1.32,13.09-2.39.98-3.32.56-6.48,2.25-9.64,1.88-3.52,2.57-5.55,4.13-9.11.34-.87.78-1.62,1.35-2.24,2.77-4.93,6.25-9.7,12.35-10.31,4.87-.49,9.84,1.23,14.14-1.35,4.07-2.6,7.84-2.59,12.38-2.08.83-.03,1.4-.51,1.98-1.06Z"/>
    <path class="cls-44" d="M385.56,119.98c-.31,2.09.47,5.43-.09,7.31-.24.78-2.77,3.2-3.46,4.62-.81,1.67-1.4,4.11-1.45,5.95-1.88.25-9.07,1.95-9.72-.25.26-3.6-1.2-8.07-.53-11.56.24-1.26,2.75-2.96,3.58-4.27v.45c-.76,1.13-2.24,2.66-2.64,3.42-1.23,2.37.58,8.53,0,11.55.55,1.65,7.19.32,8.91.28-.13-2,.52-4.21,1.4-6,.7-1.41,3.22-3.88,3.45-4.63.5-1.65.05-4.51.54-6.86Z"/>
    <path class="cls-63" d="M469.95,213.75c.73-1.74,1.94-2.94,2.57-4.84,1.33-4.01,2.54-12.86,1.35-16.8-.87-2.9-5.13-5.68-1.22-7.53.18.9-1.2,1.59-1.24,2.01-.02.27,2.38,3.56,2.8,4.73,1.69,4.67.27,13.26-1.23,18.03-.74,2.35-1.52,2.81-3.02,4.39Z"/>
    <path class="cls-25" d="M309.7,44.61c-5.2-2.83-10.84-2.2-15.71.9,4.67-4.23,10.54-4.31,15.71-.9Z"/>
    <path class="cls-7" d="M373.89,122.22v-.45c1.9-2.99,2.17-7.91,1.75-11.39-.23-1.86-1.6-3.39-.85-4.76,1.6,3.95,2.16,10.73.54,14.67-.47,1.14-1.02,1.31-1.43,1.93Z"/>
    <path class="cls-4" d="M510.8,25.32c-.3.22-.38,1.01-1.2,1.25-1.97.57-4.1-.48-6.14-.32-2.31.18-4.84,1.51-7.02,2.21,2.24-1.35,3.23-2.21,6.17-2.58,3.14-.39,5.47,1.05,8.19-.57Z"/>
    <path class="cls-37" d="M366.71,26.66c.39.13.39.28,0,.45-4.76-2.57-7.91-2.44-13.02-.9,5-2.44,8.14-2.41,13.02.45Z"/>
    <path class="cls-50" d="M711.91,58.07c-1.61.22-3.12-.5-4.71-.49-2.26,0-5.34,1.65-6.96-.86,4.01,1.26,6.97.2,11.67,1.35Z"/>
    <path class="cls-55" d="M521.58,150.04c-.17-1.6.77-8.96,1.78-9.66,1.76-1.22,1.17.6,1.37,1.14-.36-.34-.5-1.49-1.11-.43-.82,1.42-1.57,6.83-2.03,8.96Z"/>
    <path class="cls-52" d="M620.34,186.38c-2.76,2.33-4.87,3.52-8.53,4.04l8.53-4.04Z"/>
    <path class="cls-17" d="M654.45,202.98c-1.86-.41-2.84-2.55-4.26-3.59-.66-.49-1.58-.75-2.48-1.34,3.27-.12,4.7,3.12,6.73,4.94Z"/>
    <path class="cls-38" d="M502.72,178.75c-1.86,1.76-3.83,3.59-5.84,5.38,1.15-2.51,3.09-4.7,5.84-5.38Z"/>
    <path class="cls-37" d="M208.7,55.83c-4.2-1.15-3.29-1.04-6.28-3.59,2.05,1.29,4.11,2.51,6.28,3.59Z"/>
    <path class="cls-10" d="M434.49,65.7c-2.55.69-5.15,1.34-7.63,2.24,2.24-2.01,4.82-2.09,7.63-2.24Z"/>
    <path class="cls-22" d="M593.85,178.3c.27-.2.86-1.52,1.79-.9.27.18,1.55,5.41,1.8,6.28-1.17-2.04-1.31-3.42-2.14-5.27-.48-1.07-.69-.47-1.45-.11Z"/>
    <path class="cls-13" d="M168.74,188.17c-2.43,1.42-2.91,1.83-5.84,2.24l5.84-2.24Z"/>
    <path class="cls-53" d="M84.35,71.98c-.19.43.48,1.66-.66,1.34-1.47-.42-2.42-2.34-3.38-3.13.23.14.7.14,1.12.43.56.39,2.16,2.82,2.92,1.36Z"/>
    <path class="cls-54" d="M84.35,71.98c.29-.55.42-2.24.95-3.31.47-.96.85-1.05,1.29-1.62-.33,1.75-1.56,3.39-2.24,4.94Z"/>
    <path class="cls-36" d="M505.87,175.61c.4-1.3,1-2.95,1.8-4.04.3,1.95-.84,2.78-1.8,4.04Z"/>
    <path class="cls-58" d="M602.83,189.07c-.55-.25-1.08-.21-1.77-.69s-.9-1.04-1.37-1.55c1.17.26,2.37,1.3,3.14,2.24Z"/>
    <path class="cls-28" d="M211.84,57.17c-.93-.46-1.98-.77-3.14-1.35,1.07.29,2.52.06,3.14,1.35Z"/>
    <path class="cls-41" d="M579.04,185.48c-1.9,1.22-1.45,1.44-4.04,2.24l4.04-2.24Z"/>
    <path class="cls-65" d="M468.61,42.37c.3-.69-.07-1.85,1.35-2.24-.39.69-.44,1.71-1.35,2.24Z"/>
    <path class="cls-46" d="M664.33,47.75c-.45,1.08-1.39,1.02-2.24,1.35.35-1.14,1.57-.99,2.24-1.35Z"/>
    <path class="cls-21" d="M528.76,156.32c-.84-.83-1.37-1.95-1.35-3.14.37.96.91,1.98,1.35,3.14Z"/>
    <path class="cls-19" d="M368.5,28.01c-.76-.02-1.22-.59-1.8-.9v-.45c.24.14.71.09,1.14.43.35.27.45.73.65.92Z"/>
    <path class="cls-15" d="M184.9,174.71c-.29-.6-1.2-1.12-.9-2.24.54.73,1.05,1.13.9,2.24Z"/>
    <path class="cls-16" d="M669.27,44.16c-.35.79-.91,1.28-1.8,1.35.3-.21,1.61-1.19,1.8-1.35Z"/>
    <path class="cls-1" d="M285.01,55.83c-.2.64-.69.89-1.35.9.27-.16,1.03-.68,1.35-.9Z"/>
    <path class="cls-32" d="M229.79,204.33c-1.09.83-.84.76-2.24,1.35l2.24-1.35Z"/>
    <path class="cls-6" d="M628.86,172.02c-.02-.83.33-.97.9-1.35.14.9-.62,1-.9,1.35Z"/>
    <path class="cls-57" d="M241.91,190.87c-.19.15-.31.59-.73.85-.54.34-1.09.31-1.52.5l2.24-1.35Z"/>
    <path class="cls-24" d="M80.31,70.18c-.23-.19-1.23-.06-1.35-.9.65.37.94.64,1.35.9Z"/>
    <path class="cls-61" d="M311.04,45.51c-.87.22-1.17-.8-1.35-.9.52.34.74.44,1.35.9Z"/>
    <path d="M426.41,138.82c-.05.28.02.61,0,.89,3.59-.05,6.68,2.11,10.33,1.8.18.14-.87,1.4.29,1.73,3.05.88,10.67-1.03,13.15.77.8.58.85,1.79,2.17,2.32.77.31,3.9,1.19,4.86,1.42,1.02.24,6.63.74,6.92.94-2.81,2.85-1.27,2.69-.43,5.14.34,1,.52,2.83.95,3.54.64,1.07,2.08.47,2.53,2.41,1.13,4.94-2.12,9.85-4.26,13.94-.64,1.22-1.35,3.82-1.92,4.7-.35.54-1.13.38-1.57.76-.76.65-5.05,4.28-5.07,4.72-.02.69,1.67,1.68,1.84,2.13,1.35,3.54-1.36,7.54-1.01,8.59.33.99,6.1,2.1,6.28,2.82l-1.38,7.44c-.58,1.26-6.78,2.55-7.63,3.25-1.18.98.22,2.95-.04,3.31-.14.19-2.94,1.97-3.56,2.53-4.54,4.11-4.94,6.22-11.95,6.9-2,.2-4.08.2-6-.39,1.11-3.33-.49-1.23-1.68-1.01-8,1.48-15.33,3.36-23.27,1.96-1.8-.32-5.91-.14-6.4-2.17-.21-.87.54-1.79.2-2.37-.61-1.01-4.67-1.55-5.1-2.33-.34-.62.08-1.88-.17-2.75-.28-.96-1.51-1.03-1.92-1.67-.36-.56-.21-1.45-.66-2.03-1.31-1.7-6.79-1.65-9-3.13-.58-.39-5.6-5-6.09-5.57-.75-.87-1-1.9-1.79-2.7-.56,1.83-1.65,1.05-2.76-.16-2.08-2.26-1.49-5.34-2.66-6.99-.79-1.12-4.52-3.17-5.82-4.5-.89-.9-1.44-2.47-2.02-2.91-1.01-.77-2.96-.49-4.2-1.19-2.99-1.69-1.13-5.3-2.51-8.03,4.01.27,7.4,1.78,10.75,3.84.76.47,1.26,1.42,2.12,1.92,1.82,1.07,6.74,2.89,7.81,3.89.76.71-.4,1.76.4,2.26.68.42,2.9.15,4.09.41.88.19,7.32,2.21,7.59,2.51.4.45-.6,2.44-.43,2.67.25.33,6.3,1.78,7.8,2.75,1.87,1.21,2.03,3.93,5.09,4.78,2.54.71,4.55.03,6.63.1,2.27.08,4.05,1.19,6.7.86,1.44-.18,6.73-2.28,8.22-3,1.62-.79,3.65-5.87,3.96-7.7.36-2.05-.06-4.05.33-5.96.31-1.55,3.06-6.42,3.03-7.33-.03-1-1.12-.8-1.35-1.44-.39-1.04-.33-3.31-.66-4.62-.36-1.42-1.17-2.52-1.17-3.99-2.14-.16-4.33.12-6.48-.03-2.39-.17-10.78-.97-12.52-1.85-.62-.31-3.23-3.33-3.37-3.85-.36-1.36,2.15-1.58.95-4.5s-3.8-1.34-4.95-2.01c-.13-.08-1.75-2.32-1.8-2.46-.31-1.02.11-4.89-.09-5.07-.42-.38-2.06,1.16-2.25-2.02-.13-2.08.71-2.38.83-3.23.08-.58-.78-.93-.61-1.47.35-1.09,3.31-3.79,3.74-5.26.97-3.33.02-7.87,1.22-11.34,1.02-2.95,4.51-7.29,5.05-10.2s-.34-6.21.31-9.11c3.02-2.95,6.11-6.87,9.28-9.57,1.6-1.36,5.99-4.66,7.93-5.12,1.21-.28,2.27.45,2.34.35.11-.17-.1-1.33.09-1.93.43-1.38,2.98-1.98,4.04-2.6,3.01-1.73,6.66-4.09,10.44-3.52,4.11.63,7.69,1.36,12.1.83,2.59-.32.9-.96,1.37-1.75.1-.16,2.62-2.55,2.8-2.6,6.9-.85,13.81-2.09,20.78-1.89.09-2.12-1.94-2.89-1.83-5.16s1.95-1.26,2.28-1.58c.26-.25-.46-3.38-.47-4.24-.03-2.48,3.5-12.25,4.87-14.48.91-1.48,2.98-2.9,3.54-5.07,5.12-.42,12.04,1.41,16.97.46,2.17-.42,1.78-3.68,3.6-4.03,3.62-.69,7.48,2.07,9.81,1.27.89-.31,1.95-3.36,3.47-4.15,3.08-1.6,13.52-4.27,16.78-3.82,9.63,1.32,19.82,1.18,29.67,1.3,5,.06,5.18.51,9.87-2.21.76-.44,2.53-2.21,2.7-2.25.91-.21,1,1.21,1.55,1.56,1.38.87,2.28-.39,3.41-.63,7.46-1.56,15.21-1.12,21.97-2.71,2.28-.54,4.36.99,2.45-2.71,1.86.12,2.98-1.58,4.69-1.82,3.6-.49,5.94.52,8.98.94,2.6.36,12.25.36,14.86,0,2.94-.4,5.36-2.26,8.93-1.79,2.48.33,3.99,2.72,6.52,3.13.55.8-3.04,4.02-.21,4.02h9.2c.18,0,.59,2.91.24,3.6-.29.56-4.16,2.37-5,2.64-6.28,2.01-15.22,2.75-21.9,4.13-7.9,1.64-15.8,3.33-23.8,4.93-3.31.66-1.79,1.08-5.56.08-3.23-.86-1.45,2.48-4.02,3.35s-7.23.93-10.17,1.5c-.7.14-1.21.68-1.89.8-4.4.78-8.68,1.77-13.19,1.39l1.79,2.69c-.37.32-8.18-.23-9.67-.02-2.07.29-5.38,1.96-7.19,2.24-4.82.76-10.02.48-14.78.93-4.26.41-2.22,2.98-4.24,5.51-.56.7-1.75.62-2.27,1.44-.24.99,1.93,1.13,2.23,2.69.2,1.04.18,7.51-.09,8.42-.52,1.8-3.36,1.96-4.06,3.57-.65,1.5-.08,2.8-.36,4.13-.34,1.6-1.58,3.65-1.33,5.63-1.37-.56-1.41-.5-1.96.94-1.44,3.76-1.45,7.95-3.68,12.03-.8,1.46-4.14,3.39-4.46,4.06-.47.99-.04,2.32-.46,3.58-.56,1.69-3.28,3.18-3.99,4.54-1.9,3.64-2.47,9.2-5.02,13.38-1.26,2.06-1.58,2.83-4.21,1.84l-4.49,22.43-3.59-.45c.01,1.07.11,2.11-.21,3.16-.08.26-2.43,4.58-2.62,4.78-.68.75-4.95,2.77-5.48,3.72-.64,1.16.14,3.26-.3,3.96-.09.15-2.3,1.05-3.03,1.69-1.18,1.03-2.66,3.97-4.1,4.41-1.31.4-4.71.88-4.93-.86-.24-6.11.32-12.31.02-18.41-.07-1.42-1.08-4.86-.95-5.75.02-.17,2.55-2.01,3.18-1.19.22.13.39.22.4.2.67-1.03.33-6.29.05-7.83-.91-7.9,2.13-7.25,3.12-12.81.49-2.73-.29-6.33.13-9.29.63-4.4,3.54-9.7,4.78-14.06l1.85-11.84c.19-.29,6.05,2.11,6.68.63l4.88-13.97c.56-2.88-1.29-4.78.45-7.64.4-.66,1.06-.83,1.28-1.17,1.01-1.54.78-2.57.61-4.32-.22-.26-3.71,2.29-4.38,2.57-1.33.57-2.84.64-4.16,1.23-.71.32-5.13,2.52-5.35,2.73-1.34,1.23-1.48,4.12-3.21,5.76-1.16,1.1-2.69,1.28-3.78,2.06-.93.66-1.74,1.91-2.7,2.69-.68.55-3.6,2.15-3.71,2.35-.15.27-.89,5.26-.97,6.04-.08.85.45,1.75.38,2.14-.16.84-2.65.67-2.65,1.38v12.34c-.9.47-4.3-.58-4.48-.45-.32.23-1.58,6.65-1.37,7.61-1.58.25-3.86.45-5.35-.22-.66-.3-1.64-1.77-2.56-2.38-1.98-1.32-4.92-1.58-6.44-3.43-.56-.68-.6-1.94-1.57-2.47-1.29-.28-.39,1.54-.66,1.79-.17.17-2.05-.3-2.73.19-.58.41-.26,1.9-.83,2.31-.75.53-6.9.81-8.01.34-.69-.29-1.41-2.13-2.82-2.61-2.95-1.02-3.96,2.87-5.39,4.45-2.32,2.56-7.73,4.95-8.46,8.14-.35,1.54-.19,3.31-.72,5.11-1.06,3.63-2.9,4.56-2.91,8.99-.66,3.12.16,3.87,2.48,2.23.33.23-.45,1.45-.69,1.8Z"/>
    <path d="M129.69,177.41c.05.27.16.95-.26.9-1.84.35-3.64-.42-5.34-.47-3.39-.1-8.07.48-11.21,0-1.84-.29-3.72-2.2-5.07-2.56-1.05-.27-2.18.03-3.28-.31-3.76-1.16-8.38-2.65-10.98-5.63l-.89,2.23c-1.82-1.68-8.23-4.22-9.4-5.85-1.09-1.51-4.94-13.93-4.77-15.9.15-1.71,1.55-3.37,1.79-4.96.5-3.31-.09-8.11,0-11.65.03-1.09.8-2.53.26-3.34-.24-.36-1.05-.46-1.34-.92-.32-.51-.17-1.32-.47-1.77-.6-.9-2.71-.35-2.48-1.58.25-1.32,3.08-3.47,3.79-5.2.62-1.54.51-4.17.93-4.9.67-1.15,3.65-.4,4.06-3.12.2-1.32-.52-2.82-.51-4.2.01-1.89.84-6.35,1.87-7.9.68-1.03,2.61-1.96,2.82-2.56.44-1.27-.16-3.59.17-5.21.14-.67,2.1-5.41,2.5-6.03,1.48-2.35,7.09-5.13,9.52-6.87.71-1.55-4.7-1.97-3.59-3.13.33-.34,6.66-1.8,7.87-2.23,1.3-.46,2.74-1.88,4.12-2.16,1.92-.39,4.08.13,6.08-.21,2.61-.44,6.33-3.34,9.12-3.46,1.34-.06,4.64,1.34,6.38,1.64,2.84.49,5.76.86,8.62,1.03v-2.25c4.08.38,10.18,1.73,14.07-.09,1.08-.51-.02-1.19.93-2.16.14-.14,3.1-2.14,3.29-2.21.49-.18,1.28.02,1.91-.24,3.99-1.61,3.83-6.83,8.74-7.43,1.55-.19,7-.2,8.12.43s1.52,2.49,2.78,3.06c3.38,1.53,7.87.3,10.57,1.1.61.18,7.46,5.62,9.51,6.65,1.52.76,5.47,1.75,6.52,2.46,1.55,1.05-1.83,2.29-1.72,3.5s2.47,4.22,2.94,5.6c.69,2.04.49,5.18,1.13,6.94.47,1.28,4.88,3.48,5.28,5.49.87,4.41-2.54,6.62-2.65,9.45-.17,4.5,1.09,10.92.67,15.47-.07.79-3.21,8.04-3.63,8.49-1.62,1.75-7.32,1.64-9.88,2.69-.87.35-3.83,2.23-3.81,2.89l10.13,20c.69,1.55-.26,2.65-1.13,3.83,2.5,1.67,4.06.9,5.46,3.95,2.74,5.95,1.93,13.28,6.43,18.25.39-4.75,1.98-9.4,2.46-14.14.18-1.81-.4-5.26.08-6.65.37-1.09,2.95-1.49,3.07-1.65.3-.41-.96-1.46-.91-2.42s1.53-2.71,1.76-4.58c.26-2.15.22-5.83.07-8.04s-1.64-7.22-1.37-8.93c.22-1.38,2.46-2.43,3.09-3.67.94-1.82.59-9.9.52-12.52-.09-4.01-2.11-6.98,2.67-9.41l-2.24-.67c.46-3.55.55-7.41,1.47-10.87,1.36-5.11,2.92-8.59,3.81-14.13.15-.92.03-4.22.59-4.59.44-.29,5.01.32,5.79.88-1.34-5.65,2.1-1.26,4.02-.64,2.97.95,1.89-2.03,3.23-3.99,2.25-3.29,6.1,3.21,8.34,3.66,1.04.21,6.45-2.26,7.96-2.63s-.04,1.57.23,1.8c1.39-.39,3.14.43,4.29.39,1.04-.03,1.96-1.07,3.15-1.26,1.52-.24,9.18-.22,10.21.4.56.33.75,1.57,1.68,2.03,1.84.91,7.89.79,8.92,3.2.69,1.62-1.85,1.11-2.69,2.18-.37.46-.32,1.39-.47,1.53-.19.18-3.03.03-4.01.26-6.63,1.52-10.91,10.42-18.57,11.05-3.01.25-4.62-1.38-7.63-.89-.76.12-5.21,2.5-5.66,2.99-1.27,1.41-.62,2.79-.98,4.28-.78,3.21-.81,5.14-1.35,8.07-.41,2.21-2.85,4.37-2.13,7.06,3.75-3.88,2.36.07,3.78.3,1.76.28,4.97-1.24,6.8-1.61s3.24.53,4.91-.92c.49-.42.86-1.63,1.32-1.7.35-.05,3.35,1.21,4.53,1.26,1.84.07,3.22-.89,5.16-.26.84.27,4.99,4.26,4.88,4.9-1.71,1.96-3.24,3.61-5.64,4.72-1.68.78-10.21,2.54-10.43,3.45-.12.48.74,2,.37,2.42-.23.26-5.95,2.05-6.6,2.15-3.03.49-5.3-.3-8.31,1.47-.44.26-2.55,2.67-2.81,2.67-.33,0-1.01-1.55-1.57-1.12-2.09,3.01-.02,2.71.7,3.82.59.9-1.64,4.89-1.64,6.5,0,1.75,1.1,6.14.83,7.58-.17.88-2.75,2.14-1.05,3.45,1.1.85,2.67-.2,2.84-1.2.09-.52-.38-1.18-.36-1.75.09-1.87,4.59-1.37,5.97-1.67,1.18-.25,2.65-1.37,3.8-1.59,3.78-.71,8.75.41,12.71-.76,1.62-.48,5.83-4.69,6.92-4.73,1.17-.04,5.25,3.76,6.95,4.28,3.18.96,8.37-1.4,9.44,3.54-2.8,1.99-5.92,1.47-9.12,3.02-2.61,1.26-9.36,7.79-9.99,7.92-.38.08-1.02-.38-1.64-.27-1.47.28-4.1,2.37-5.93,2.61-2.91.39-3.28-.71-5.18-1.19-2.55-.65-5.56,7.46-6.06,7.44-.13,0-.59-.88-1.27-.82-.42.04-.97.61-1.54.72-1.65.31-5.31.33-6.39.79-2.03.88-.87,3.33-1.76,4.52-.61.81-2.49.79-3.42,1.51s-1.86,3.49-2.45,3.84c-1.3.77-7,.46-8.9,1.67-.92,1.7-2.34,5.8-4.02,6.52-1.18.5-2.28-.52-.96,2.43.32.71,2.11,1.44,2.2,2.6-2.84,1.56-6.44.9-8.11-1.99-.94-1.62.33-2.39-.01-3.53-.19-.64-4.73-2.56-5.59-2.59-1.47-.05-2,1-3.35.94.23-2.07.66-3.87.39-6.01-.11-.92-1.84-5.98-2.27-6.69-.6-.99-3.72-2.4-4.44-3.2-.99-1.1-2.84-6.31-4.04-8.07-.59-.86-2.01-.75-2.45-1.6-.62-1.22.09-5.52-.22-5.84-3.66.91-1.97.3-3.33-1.38s-4.62-2.98-5.29-5.03c-.5-1.53-.05-3.75-.76-4.63s-2.26-.55-3.07-1.2c-1.5-1.22-2.37-6.65-5.82-6.98-.88-.08-2.78,3.57-2.84,4.22-.12,1.18,1.3,2.4.91,3.78h-2.69c.84,4.04-1.21,8.1,1.64,12,.58.79,2.03,1.16,1.9,2.05-1.98,1.35-2.77,5.44-3.77,6.58-.63.72-2.18.96-2.85,2.19-1.78,3.25-.4,6.83-3.66,10.15-.43.44-.59.85-1.34.68.08-1.67-.81-3.63-.85-5.21s.89-4.34.73-5.73c-.12-1.02-2.36-3.36-2.41-4.09-.07-1.1,2.44-3.25,2.51-4.67-1.56-1.07-3.16-.85-4.92-1.17-.11-1.26,1.93-2.79,2.4-4.33,1.19-3.95.17-16.77-.81-21.02-.42-1.82-2.14-4.94-2.02-6.48.09-1.18,1.84-3.09,2.12-4.61.9-4.87-.33-7.36-.79-11.55-.15-1.34-.26-6.93,0-7.99.14-.59,2.42-1.08,2.62-1.93.17-.71-.83-3.62-.83-4.88,0-.67.4-3.76.56-4.41,1-3.98,3.23-4.84-.99-9.07.02-.78,6.17-1.57.67-5.2-2.33-1.54-2.27,1.93-2.71,2.72-.4.73-2.53,1.16-2.84,2.1-.52,1.58.82,3.35-1.65,4.19-.43-2.25-5.9-3.13-7.54-2.61-.96.3-2.01,3.47-3.31,3.88-1.02.32-2.4-.06-3.51.08-1.71.22-9.76,1.08-10.58,1.55-.64.37.16,1.36.02,1.56-.1.14-2.57.58-3.31.98-1.23.68-2.45,2.58-3.66,3.52-3.2,2.48-6.48,2.67-10.31,3.61-.48-.02-.13-.94-.23-1.35-.79-.35-1.25.45-1.36,2.41l-.43.73c-.38,1.72-1.83,5.86-1.82,6.96.01,1.29,1.12,2.61,1.33,4.07.18,1.31.4,4.34-.85,5.12l-.9-1.34c.57,2.39-3.4,6.08-3.54,7.48-.13,1.26,2.22,1.41,2.13,2.53-.06.71-2.56,4.42-3.11,5.9-.47,1.28-2.35,7.96-2.01,8.74.13.29,2.68,4.17,2.89,4.33.86.68,2.02.53,2.51,1.08.87,1,1.17,4.36,1.92,5.72.45.82,1.33.99,1.77,1.81.63,1.17,1.66,4.99,2.82,5.73.82.52,2.4-.34,3.7-.16.7.09,5.19,1.75,5.98,2.14,1.94.94,3.58,2.84,5.37,4.06l.22-2.69c.22-.24,5.59,1.73,6.16,2.1,1.17.77,1.6,2.67,2.52,3.58.77.77,5,3.43,6.01,3.64s3.25-.1,3.66.16.48,2.84,1.06,3.43c1.74,1.78,3.24-1.8,4.39,3.69.13.22.22.39.2.41-1.19.87-15.42.33-17.8-.3-3.52-1.67-4.38-1.4-2.6.79Z"/>
    <path d="M691.26,132.99c-1.24-1.03-1.95,1.68-1.83,2.41.1.63,1.73.35,1.86,1.01.35,1.72-1.69,4.77-1.83,6.26-.17,1.9,1.09,5.16.93,7.14-.13,1.68-3.31,3.89-.61,4.65,3.47.98,1.77-3.73,1.93-3.95.61-.83,4.87-.78,5.94-1.02,1.31-.29,2.81-1.46,4.17-1.66,3.64-.55,8.15.37,12-.57,1.87-.46,5.98-4.62,7.34-4.75,1.72-.16,5.52,3.83,7.22,4.28,3.31.88,8.4-1.48,9.54,3.69-2.95,1.32-6.37,1.31-9.29,2.61-2.29,1.02-6.26,4.23-8.32,5.92-.63.52-1,1.73-1.7,2.04-.62.27-1.28-.28-1.91-.15-1.27.26-4.09,2.37-5.92,2.62-2.91.39-3.28-.71-5.18-1.19-2.55-.65-5.56,7.46-6.06,7.44-.13,0-.59-.87-1.27-.81-.62.05-2.96,1-4.17,1.22s-2.56-.23-3.75.29c-2.08.91-.92,3.71-1.76,4.88-.35.48-2.23.33-3.16.98-1.12.78-1.84,3.35-2.46,3.82-1.32,1.02-6.53.31-8.76,2.01-1.47,1.12-2.44,5.07-3.82,6.05-1.26.9-2.88-.38-1.71,2.09.6,1.26,2.3,1.84,2.35,3.25-2.32.59-2.94,1.59-5.36.21-.27-.16-3.15-2.55-3.17-2.76-.14-1.02,1.06-3.2.2-3.77-1.73.1-3.53-1.7-4.9-1.79-1.51-.09-2.38,1.02-3.81.94.88-3.8.38-10.22-2.3-13.18-.91-1.01-2.99-1.79-3.57-2.38-1.3-1.34-3.06-6.35-4.53-8.37-.55-.75-1.67-1.06-1.96-1.63-.68-1.36.47-5.48-.93-5.78-.46-.1-1.22.66-1.98.19-.31-.19-.85-1.33-1.34-1.84-1.28-1.32-4.89-3.99-5.31-5.46-.34-1.21.31-3.03-.5-3.99-.59-.7-1.82-.51-2.55-1.05-1.06-.78-4.79-9.21-7.26-6.65-.13.14-1.66,3.24-1.71,3.47-.33,1.52,1.08,2.64,1.15,4.04-.55.1-2.56-.14-2.69,0-.26.27-.51,6.54-.41,7.37.34,2.61,3.55,6.31,3.49,6.68-.1.65-1.7,2.09-2.12,2.85-.58,1.07-.77,2.5-1.48,3.46s-2.69,1.71-3.07,2.43c-.85,1.59-.17,4.46-1.03,6.48-.25.6-3.27,5.06-3.91,4.38.08-1.67-.81-3.63-.85-5.21-.04-1.48,1-4.97.76-6.12-.19-.92-2.1-2.7-2.14-3.69-.09-2.5,5.9-5.85-2.26-5.62,1.05-3.5,3.02-5.63,3.1-9.6.05-2.68-1.01-5.91-1.28-8.15-.3-2.48-.11-4.8-.59-7.48-.26-1.42-2.12-6.26-2.1-6.86.03-.82,1.86-2.83,2.12-4.13,1-4.92-.35-8.14-.79-12.46-.14-1.35-.27-6.46-.01-7.53.14-.6,2.28-.97,2.63-1.96.44-1.27-.41-3.65-.38-5.29.07-4.91,3.94-9.01-.88-13.03.73-1.07,3.57-1.31,3.59-2.69-1.9-.36-7.8-9.81-7.44-10.56,1.44-2.05,6.58-2.7,7.87-3.82.54-.47,1.89-3.76,3.16-4.92,2.14-1.96,7.34-1.97,10.12-1.59,2.45.33,2.86,3,4.11,3.52,3.31,1.37,9.39.33,11.35,1.22.82.38,1.03,1.52,1.49,1.88,1.35,1.04,4.05,2.8,5.56,3.64,1.33.74,8.46,3.47,8.66,3.91.65,1.43-2.32,1.58-2.18,3.06.06.65,2.49,4.08,2.95,5.59.66,2.18.47,5.19,1.12,6.95.47,1.28,4.88,3.48,5.28,5.49.21,1.09.04,2.72-.18,3.83-.38,1.87-2.45,4.24-2.45,5.62-.03,4.58.24,10.8,1.22,15.13-2.29,3.13-2.59,8.84-6.57,10.04-2.08.63-4.67.43-6.81,1.27-.41.16-4.31,2.29-4.46,2.5-.11.16-.06.4-.04.61,2.83,5.33,5.26,10.89,8,16.27.71,1.39,2.88,3.3,2.56,5.11-.16.87-1.44,1.88-1.12,3.09,3.61.55,4.66,1.3,5.85,4.7,1.99,5.68,2.06,10.71,4.92,16.39.95.2,1.4-.84,1.35-3.14.64-3.23,1.89-7.57,2.19-10.6.18-1.82-.32-5.24.13-6.6.32-.97,2.47-1.16,2.62-1.89.1-.48-.96-1.14-.91-2.18.04-.92,1.53-2.72,1.76-4.58.27-2.23.24-6.2.07-8.49-.17-2.26-1.65-6.73-1.37-8.48.22-1.38,2.46-2.43,3.09-3.67.94-1.83.59-10.31.52-12.97-.09-3.94-2.03-6.53,2.67-8.96.58-1.15-1.86-.22-2.21-1.4-.06-.21.35-3.75.42-4.42.62-5.85,3.48-9.54,4.38-14.47.26-1.45.47-9.53,1.01-9.99,2.13.61,3.96-.63,5.83.9.55-.74-1.34-2.84.24-2.71,2.09.17,3.54,2.97,6.05,2.26-.28-1.19.95-5.11,2.08-5.32,2.43.2,5.71,4.53,7.68,4.82.36.05,6.1-1.88,6.85-2.19,1-.85,1.3-.55.9.9.16.32,3.94.93,4.69.88,1.05-.06,1.99-1.11,3.19-1.3,1.44-.23,9.05-.22,9.88.39.58.42.77,1.63,1.55,2.04,2.28,1.2,6.19.17,8.67,2.55,1.69,1.62-.6,1.69-1.98,2.82-.52.42-.75,1.51-1.18,1.61-.82.19-1.94-.15-2.95.09-6.85,1.67-9.33,7.07-15.19,9.94-5.46,2.68-7.52-.42-11.83.3-.41.07-5.3,2.56-5.52,2.78-.83.86-.4,2.9-.67,4.04-.72,3.01-.85,4.73-1.35,7.63-.44,2.54-2.94,5.04-2.58,7.96.74.03,2.31-1.79,2.46-1.79.56,0,.65,1.99,1.32,2.12.17.03,3.07-.34,3.52-.44,1.17-.25,2.13-.97,3.27-1.21,1.56-.33,3.13.47,4.69-.7.58-.44.81-1.37.98-1.48.95-.57,4.19.8,5.55.82,1.09.01,2.06-.5,3.12-.5,2.9-.01,4.96,2.62,6.53,4.73-.24,1.49-4.49,4.71-5.91,5.35-1.68.76-9.97,2.21-10.22,3.22-.13.52.75,1.81.34,2.38-.2.28-5.78,2.06-6.57,2.19-4.5.73-6.96-.63-10.44,3.7-.35,1.02-.8.87-1.35-.45Z"/>
    <path d="M360.87,116.84c-1.11,4.5-4.59,6.58-4.4,12.34.05,1.56,1.06,2.54,1.23,3.61.55,3.46.75,9.05.47,12.53-.21,2.62-1.83,5.44-.9,7.65l1.8.88c-.96,2.1-2.73,2.77-3.77,4.31-3.48,5.12-1.9,7.06-7.67,11.63-3.59,2.84-6.75,6.24-11,8.07.05-1.19-.17-2.35-1.13-3.13-1.46.89-5.19,6.92-5.63,2.93-.52-4.67.46-10.62-1.88-14.74-.14-.25-2.12-2.61-2.36-2.55-.47.12-2.45,4.08-2.79,4.84-2.42,5.53-2.46,12.35-7.1,16.69-1.36,1.27-3.93,2.24-5.13,3.39-1.48,1.42-2.18,3.49-3.62,4.94-1.49-.92-5.91-1.44-6.97-2.49-.65-.65-.41-1.72-.71-2.34-2-4.22-3.12-9.5-2.18-14.47.37-1.95,2.88-5.61,3.59-7.62,1.7-4.76-2.37-2.89-3.38-5.19-.2-.46-.65-4.36-.67-5.16-.09-2.92.12-4.49,1.45-7.08.45-.87,2.14-1.52,1.68-3.46-1.29.39-7.42-2.22-7.64-3.01-.34-1.25.21-3.7-.01-5.27-.36-2.54-1.99-7.29-2.26-9.41-.71-5.52-.73-9.42-1.8-14.79-.14-.69-.85-1.32-.86-1.85-.05-2.37,6.61-3.17,6.79-6.73l-3.17-10.8c.04-.97,1.3-1.14,1.96-2.02,1.49-1.95,1.28-5.02,1.19-7.39-.07-1.94-.11-1.51,0-3.54.2-3.9-.11-3.69-1.41-6.72-1.1-2.57-.08-1.73,1.35-2.75,3.97-2.83,7.52-6.46,9.46-10.97,1.87,1.89,5.02,4.44,4.47,7.37-.14.75-.76,1.24-.9,2.25-.59,4.2.49,11.03,1.42,15.23.11.49.95,3.29,1.06,3.43.55.72,1.9.23,2.51.63,1.67,1.12-2.19,11.24-2.09,13.51.2,1.18,3.27,1.15,2.97,2.89-3.63.68-3.26,4.22-3.71,7.29-.66,4.53,1.26,8.31,1.89,12.7.48,3.36-1.12,7.2,2.47,9.66,2.14,1.47,6.39-4.02,7.11-5.96.53-1.44,1.34-4.93.21-6.08-.65-.67-1.85-.05-1.7-1.23.12-.97,1.54-1.62,1.96-2.98.64-2.05,0-4.03.32-5.96s2.21-4.23,2.55-6.42c.38-2.47-.33-5.67.23-7.85.37-1.45,2.42-2.76,3.22-3.96,1.33-1.96.17-3.02,4.51-2.2,2.15.41,1.73,3.42,2.16,5.01,1.23,4.54.86,3.64.75,8.19-.14,5.82.67,7.7,4.49,12.02.21.24,1.28.89,1.36.78.05-1.85.17-4.14.58-5.93.44-1.91,1.88-4.62,2.6-6.74.13-.39.79-.2.89-.99.49-3.71-1.76-8.17-2.28-11.92.71-.13,3.87.17,4.04,0,.18-.18.07-4.43-.02-5.14-.35-2.74-.5-6.02-.9-8.52-.12-.74-.82-1.27-.92-2.26-.23-2.39,1.59-3.84,1.86-5.82.51-3.8-.37-6.97-.88-10.38-.4-2.62-.95-5.74,1.47-7.66,1.33-1.05,4.89-1.56,6.1-2.65,1.02-.92,1.46-3.66,2.27-4.91,1-1.55,2.88-2.12,4.03-3.51.37-.44.27-.39.7.14,1.56,1.91,2.29,6.78,1.98,9.19-.11.83-.74,1.48-.86,2.3-.19,1.3.67,4.63,1.51,5.62,1.46,1.72,4.46.69,3.9,5.58-.11.92-1.59.91-2.51,1.56-3.6,2.56.93,4.62.63,6.44-.11.64-1.65,1.4-1.96,2.09-.39.85-.42,6.67-.26,7.87.23,1.68,1.19,3.68,1.37,5.81.73,9.08-2.1,16.68-3.62,25.53-.2,1.14-2.06,2.97.04,3.85,1.93-1.61,1.85.64.45,1.79Z"/>
    <path d="M572.08,72.87c1.5-.3,4.4-3.39,5.33-3.11,2.23,2.34,3.24,4.83,3.43,8.05.59-.2,1.02-.66,1.66-.8,2.69-.57,1.53.36,2.43,1.86,1.32,2.21,3.83,2.04,5.93,3.06.99.48,8.61,5.55,8.78,6.06.99,2.98-5.48,14.64,4.99,10.91,1.12,4.28-1.39,7.15-2.14,10.65-.68,3.2-.31,7-.56,10.21-.14,1.74-1.51,4.49-.47,5.87.41.55,1.76.89,2.05,1.51.19.42-.55,5.98-.92,6.73-.58,1.2-3.02,2.29-3.27,3.02-.42,1.2-.17,3.71-.65,5.18-.57,1.75-2.38,3.7-3.09,5.89-1.05,3.23-1.05,9.51-3.07,11.73-1.31,1.44-4.33,3.9-5.4,5.37-.62.86-.87,2.73-1.45,3.27-.26.25-6.47,2.23-6.92,2.24-1.07.03-3.73-2.09-4.18-1.68-.01,2.35-1.84,5.8-4.28,6.27-2.8.54-8.04-.1-11.23,0-1.8.05-4.4,1.01-6.19.39-.79-.27-2.28-4.3-2.69-5.39-.23-.61-.24-2.07-.32-2.14-1-.97-5.67,2.94-4.37-3.28.68-3.25,3.85-2.41.65-6.92-2.26-3.19-4.89-7.01-5.59-11.23-.4-2.4.3-5.34-.12-7.51-.25-1.33-1.91-1.76-2.21-3.62-.51-3.19.85-5.48.89-8.07.01-1.11-.56-2.11-.51-3.12.13-2.48,6.1-7.12,6.1-12.11,0-1.39-1.09-2.96-1.08-4.05s1.22-1.99,1.25-3.11c.02-.93-.84-2.08-.58-2.95.29-.98,2.92-3.52,3.7-4.78,2.12-3.42,4.43-8.08,5.79-11.71,1.19-3.19,2.43-6.1,5.81-7.66,2.7-1.24,6.06-.78,2.85-5,2.82-.39,7.03.53,9.65,0Z"/>
    <path d="M63.06,75.75c2.07,2.1,1.26,1.48,2.19,3.87.4,1.02,4.14,3.61,5.18,3.85s1.22-.87,2.22-.53c.2.07,3.41,2.13,3.59,2.29,2.42,2.24.01,8.14.03,10.75.02,3.56,2.33,6.08,1.81,11.24-.21,2.11-1.47,3.45-1.61,5.57-.18,2.63,1.87,7.53-2.45,7.2-.23,1.25,1.82,1.75,1.72,2.83-.03.32-1.49,3.15-1.8,3.6-1.66,2.4-4.93,3.91-6.63,6.42-.11.66,3.89,3.92,4.25,5.98.1.59-.69.73-.37,1.66.58,1.67,3.06,3.21,3.51,4.62,1.04,3.21-1.65,3.92-1.64,4.72.04,1.71,1.84,2.84,1.74,3.98-.09,1-4.12,8.22-4.93,9.86-.4.81-.42,1.79-.88,2.71-2.75,5.41-8.89,4.04-14.01,6.19-3.07,1.29-4.04,3.98-7.24-.05-.86.54-.93,2.32-1.87,2.61-1.25.39-7.07.72-8.36.42s-3.06-2.43-4.41-3.22c-1.11-.65-5.34-2.1-5.82-2.83-1.03-1.54,1.3-3.52.86-5.64-.37-1.8-3.99-3.91-4.33-6.03-.23-1.43,1.28-4.09,1.27-5.75s-1.86-6.14-.84-7.78c.4-.63,2.87-.29,3.44-.61.25-.14,2.42-4.01,3.05-4.8,1.47-1.84,3.56-3.38,4.57-5.65-4.1-3.15-6.99-4.97-9.26-9.92-3.88-8.43-5.91-18.93-.69-27.5,1.77-2.91,9.1-14,11.45-15.47s6.23-2.46,8.89-4.13c2.18-1.37,3.5-3.43,6.22-4.1,5.19-1.27,7.54.01,11.15,3.66Z"/>
    <path class="cls-35" d="M142.26,118.19c-1.31,4.39-1.43,8.29.11,12.68,2.12,6.07,3.76,9.29,1.69,16.03l-1.72,3.64c-.3.48-.66.43-.97-.05-4.51-3.74-5.81-2.62-10.81-3.78-1.43-.33-2.44-1.52-3.78-2.06-3.86-1.55-6.18-1.21-8.76-4.93l-1.35-3.59c-.48-.95-1.77-2.64-1.76-3.36,0-.94,1.29-2.57,1.64-3.71,1.12-3.7,1.32-4.79,2.91-8.31,2.1-4.65,1.53-7.98.84-12.85,4.47-.15,6.84-4,9.87-6.06.45-.3,4.64-2.44,4.91-2.5,2.71-.67,5.23-.65,7.57.04.48.65,1.32,14.39.79,16.12-.29.94-.69,1.83-1.18,2.69Z"/>
    <path class="cls-35" d="M383.77,159.01c.82-.61,1.25-2.14,2.62-1.27.29.18,2.8,6,2.71,6.34-.1.37-2.06,2.84-2.53,3.8-.54,1.11-.49,2.81-1.25,3.69-.82.95-2.6.85-3.36,1.58-.7.69-.52,2.06-1.19,2.5-1.85,1.21-6.02-.56-7.76-1.64-.66-.41-1.51-1.78-2.04-1.84-.98-.11-2.93,1.68-4.27,1.19-.26-.69.05-2.17-.23-2.67-.63-1.14-2.92-1.28-3.3-2.58s.95-4.66.39-6.41c3.43,1.35,4.11-.85,5.17-3.59.2-.52.16-1.7.23-1.77.2-.21,2.09.1,2.67-.02l-.9-3.13c.38-.44,11.02-.84,11.55-.59,1.94.92,1.41,4.58,1.48,6.42Z"/>
    <path class="cls-8" d="M442.57,125.36c.15-.63.7-.98,1.65-1.06,3.97.21,7.85-.18,11.64-1.18,2.86,2.35,5.93,3.84,9.21,4.47l.16.46c1.36-.77,5.06-.73,6.51,0l.29.61c-.82,2.37-1.28,4.83-1.38,7.37l-4.39-1.37c-3.25-.24-6.06-1.09-8.44-2.57l-1.8-1.35c-5.82-3.41-7.62-1.55-13.47-2.24-2.48-.6-1.87-2.11,0-3.14Z"/>
    <path class="cls-20" d="M398.24,178.65c-1.04-.99.09-3.15,1.06-3.88,3.24,1.62,9.05,1.66,11.99,3.17,1.11.57,1.71,5.55-.81,5.79-3.95.37-5.18-1.63-8.01-3.26-1-.57-3.85-1.47-4.23-1.83Z"/>
    <path class="cls-18" d="M442.12,125.36c.2-.17.32-.74.63-.92,1.74-1.01,6.19-.16,8.53-.46,1.43-.18,3.53-1.43,4.88-1.23s4.95,4.4,7.27,4.4h8.08c2.34,0,.1,3.15-.12,4.37-.3,1.65.14,3.4-.56,5.05-2.15-.86-4.36-1.57-6.62-2.13-3.3-.82-3.95.37-6.85-2.36h.45c3.63,2.25,8.64,1.48,12.57,3.59.06-2.63.7-5.11,1.35-7.62h-6.51c-.98,0-3.96-1.21-5.02-1.71-1.12-.52-3.72-2.76-3.96-2.8-1.51-.25-3.36.8-4.94.92-2.67.2-6.74-.74-8.75.9h-.45Z"/>
    <path class="cls-9" d="M142.26,118.19c1.8-6.05.99-6.76.45-12.79-.16-1.74.78-5.7-1.13-6.05-.88-.16-5.69-.18-6.51,0,1.65-.42,4.42-.97,6.06-.94.78.01,1.67-.08,1.96.78-.49,4.85,1.64,11,.98,15.66-.18,1.24-1.04,2.41-1.82,3.34Z"/>
    <path class="cls-34" d="M149.89,176.51s.65.32.45.89c-7.17-.46-14.86,1.34-21.55-1.79-.11.09.81,1.35.9,1.79l-1.79-2.69c1.47-.2,2.39,1.08,3.67,1.48,4.21,1.32,11.26.82,15.86.76.76,0,2,.29,2.46-.46Z"/>
    <path class="cls-27" d="M485.67,140.62c0,.06.39.42.47,1.07.31,2.39-.28,5.42-.03,7.9-1.19.26-1-.51-.9-1.34.01-.12.45-.49.47-1.09.08-2.17-.09-4.37-.02-6.54Z"/>
    <path class="cls-5" d="M109.49,95.31c-1.47.45-.33,2.69-1.8,3.14.33-1.5.54-3.38.9-4.93,1.04.24.73,1.13.89,1.79Z"/>
    <path class="cls-49" d="M360.42,115.05c.15-.8,1.77-1.82,2.24-1.34.13.13-.77,3.54-1.79,3.14.1-.41.74-1.4.45-1.79-.08-.11-.7.08-.9,0Z"/>
    <path class="cls-62" d="M442.57,125.36c-1.47,1.19-1.79,2.16,0,3.14-3.42-.4-2.26-1.59-.45-3.14h.45Z"/>
    <path class="cls-45" d="M665.23,173.37v4.48c-1.12.28-.91-.47-1.35-1.34,1.51.34.68-1.15.93-2.43.07-.37.39-.61.42-.72Z"/>
    <path class="cls-12" d="M424.62,134.79s.32.13.34.56c.03.66-.61,1.72-.34,2.58l3.58-1.79-1.79,2.69c.05-.31.68-.72.44-1.35l-2.69.9.45-3.59Z"/>
    <path class="cls-59" d="M118.02,139.72c-.83-1.19-1.37-1.85-1.35-3.59.58,1.16,1.26,2.07,1.35,3.59Z"/>
    <path class="cls-60" d="M141.36,150.49c1.57.16,1.37-2.71,2.69-3.59-.24.79-1.43,4.45-2.02,4.48-.35-.16-.48-.73-.67-.89Z"/>
    <path class="cls-39" d="M457.83,132.09h-.45c-.43-.4-1.14-.6-1.35-1.35.96.56,1.39,1.09,1.8,1.35Z"/>
    <path class="cls-31" d="M709.22,73.32c-.18-.37.43-1.16-.9-.9.22-.09,1.18-1.11,1.34-.9l-.44,1.79Z"/>
    <path class="cls-23" d="M691.26,132.99c.59.49.26,1.35,1.35.45-.2.24-.18,2.62-1.35-.45Z"/>
    <path class="cls-33" d="M480.28,83.64c-1.1.19-3.93.45-2.41-.67l-.28-4.26c-.17-.85-.67-4.44,1.36-3.38.9.47,1.73,6.38,1.77,7.67.02.54.04.47-.43.64Z"/>
    <path class="cls-3" d="M477.59,78.71c.31,1.6.71,3.16.45,4.93h2.24c-1.52.54-4.17.23-5.83.9v-1.34c.61-.12,2.98.16,3.14,0,.17-.17-.12-3.72,0-4.49Z"/>
    <rect class="cls-29" x="449.76" y="146.9" width="1.34" height=".89"/>
    <path class="cls-48" d="M185.76,87.72c.36.25,1.3,4.84,1.61,5.79.68,2.07,1.76,3.47,2.01,6.06.17,1.69-.28,3.82.01,5.37.22,1.18,1.41,1.31,1.34,2.47-1.66.12-3.6.76-5.21.85-1.09.06-2.09-.57-3.5-.39-1.28.16-2.13,1.3-3.4,1.33-1.37-3.21,2.16-5.07,2.6-6.59.31-1.05.13-2.64.46-4.03.36-1.55,2.41-3.17-.81-1.94-.3-.4.25-4.73.56-5.49.4-1,3.05-4.33,4.33-3.44Z"/>
    <path class="cls-48" d="M634.66,87.72c.48.33,3.37,9.89,3.52,11.06.34,2.68-.88,6.46,1.91,7.96-2.51,2.22-6.41.77-9.09,1.22-1.25.21-1.87,1.11-3.02,1.24.04-1.08-.15-2.2.09-3.27.35-1.59,2.21-2.64,2.41-3.41.48-1.88.11-4.18,1.1-6.1,0-.55-1.6-.03-1.81-.23-.99-.95,2.32-10.27,4.9-8.48Z"/>
    <path class="cls-42" d="M561.98,132.32c-.21-1.03-2.21-3.2-2.21-4.49,0-1.35,2.7-7.45,2.64-8.98-.02-.57-.71-1.11-.86-1.81-.7-3.22.83-2.07,1.54-2.89.76-.87.01-1.9,2-2.95,2.72-1.45,4.71.47,7.39-2.48.82-.91,1.24-2.08,1.84-3.11,1.4-.3,1.25,1.05,2.23,1.83.42.34,1.3.31,1.48.52.17.2.54,2.92.91,3.81.52,1.28,1.76,2.46,2.13,3.71.19.62.71,4.18.6,4.63-.22.83-2.01,1.65-2.02,2.79-.02,2.07,4.37,3.59,1.65,7.65-.52.78-1.79,1.23-2.5,1.98-2.85,3.04-1.67,8.71-5.82,11.22-1.09.03-.1-4.17-1.84-4.46-1.07-.18-2.48,3.3-3.58,3.55-1.42.32-2.85-6.15-5.58-3.12-.3-2.19.42-5.37,0-7.4Z"/>
    <path class="cls-48" d="M58.76,92.62c.55,1.76-.86,3.24-.93,4.71s.75,2.4.9,3.62c.39,3.27-1.39,5.33-2.08,8.17-.89,3.66.34,8.39-4.17,9.51-.18-.19,1.04-4.25.37-5.31-.45-.73-5.17-1.41-5.67-3.08-.23-.75-.39-7.24-.09-7.98.63-1.58,2.13-1.58,3.16-2.7s1.45-2.94,2.91-4.27c.7-.63,5.18-3.18,5.61-2.69Z"/>
    <path class="cls-64" d="M52.36,142.95c1.04-.22,3.79.06,4.13,1.09.37,1.12-.98,2.37-1.22,3.63-.29,1.55.15,2.88-.45,4.48s-3.7,5.82-5.6,5.44c-2.85-.57-3.29-3.48-2.91-5.89.34-2.14,4.07-8.35,6.05-8.77Z"/>
    <path class="cls-56" d="M132.83,113.7c-.67,3.67-1.8,10.54-1.31,14.09.29,2.1,3.8,7.99,3.54,8.99-.43,1.67-2.93-.36-3.58-.65-2.33-1-4.38-2.17-6.14-3.52.37-2.4.77-4.81,1.2-7.25.72-1.49,1.96-2.93,2.46-4.49.78-2.41.33-4.38.68-6.51.16-.98.74-.89.89-1.11l2.87-1.69c.33.61.12,1.32-.63,2.14Z"/>
    <path class="cls-14" d="M131.48,136.13c-1.65-.73-6.09-2.07-6.56-3.58-.4-1.31.52-1.82.7-2.95.34-2.17-.17-1.99.92-4.24.71,2.14-1.52,6-.69,7.63.63,1.23,4.83,1.13,5.62,3.14Z"/>
    <path class="cls-11" d="M132.83,111.46c2.56-1.02,1.33,1.17,0,2.24.11-.61.56-1.13.44-1.79-.92.52-1.44,1.6-2.69,1.35.11-.16.31-.3.45-.45l1.8-1.35Z"/>
    <path class="cls-51" d="M132.83,111.46l-1.8,1.35c.85-.87.43-.8,1.8-1.35Z"/>
    <path class="cls-26" d="M377.03,163.5c.13.13.29,1.7-.66,1.34-1.63-.62-.12-2.12.66-1.34Z"/>
  </g>
</svg>